<?xml version="1.0" encoding="UTF-8" standalone="no"?><!DOCTYPE svg PUBLIC "-//W3C//DTD SVG 1.1//EN" "http://www.w3.org/Graphics/SVG/1.1/DTD/svg11.dtd"><svg width="100%" height="100%" viewBox="0 0 13 13" version="1.1" xmlns="http://www.w3.org/2000/svg" xmlnsXlink="http://www.w3.org/1999/xlink" xml:space="preserve" xmlns:serif="http://www.serif.com/" style="fill-rule:evenodd;clip-rule:evenodd;stroke-linejoin:round;stroke-miterlimit:2;"><g><path d="M12.5,3.125c0,-1.725 -1.4,-3.125 -3.125,-3.125l-6.25,0c-1.725,0 -3.125,1.4 -3.125,3.125l0,6.25c0,1.725 1.4,3.125 3.125,3.125l6.25,0c1.725,0 3.125,-1.4 3.125,-3.125l0,-6.25Z" style="fill:#263238;"/><path d="M11.584,3.583c0,-1.472 -1.195,-2.667 -2.667,-2.667l-5.334,-0c-1.472,-0 -2.667,1.195 -2.667,2.667l-0,5.334c-0,1.472 1.195,2.667 2.667,2.667l5.334,0c1.472,0 2.667,-1.195 2.667,-2.667l0,-5.334Z" style="fill:#607d8b;"/><clipPath id="_clip1"><path d="M11.584,3.583c0,-1.472 -1.195,-2.667 -2.667,-2.667l-5.334,-0c-1.472,-0 -2.667,1.195 -2.667,2.667l-0,5.334c-0,1.472 1.195,2.667 2.667,2.667l5.334,0c1.472,0 2.667,-1.195 2.667,-2.667l0,-5.334Z"/></clipPath><g clip-path="url(#_clip1)"><path d="M14.782,8.438c-0,-0 -1.533,-2.5 -4.709,-2.5c-3.176,-0 -4.39,2.979 -5.96,2.979c-1.569,0 0,2.667 0,2.667l10.669,0l-0,-3.146Z" style="fill:#37474f;"/><path d="M0.916,7.522c-0,-0 1.533,-2.5 4.709,-2.5c3.176,-0 4.39,2.979 5.959,2.979c1.57,0 0,3.583 0,3.583l-10.668,0l-0,-4.062Z" style="fill:#90a4ae;"/></g></g></svg>