<?xml version="1.0" encoding="UTF-8" standalone="no"?>
<!DOCTYPE svg PUBLIC "-//W3C//DTD SVG 1.1//EN" "http://www.w3.org/Graphics/SVG/1.1/DTD/svg11.dtd">
<svg width="100%" height="100%" viewBox="0 0 200 200" version="1.1" xmlns="http://www.w3.org/2000/svg" xmlns:xlink="http://www.w3.org/1999/xlink" xml:space="preserve" xmlns:serif="http://www.serif.com/" style="fill-rule:evenodd;clip-rule:evenodd;stroke-linejoin:round;stroke-miterlimit:2;">
    <circle cx="49" cy="152" r="5" style="fill:rgb(207,216,21);"/>
    <path d="M146,37L141,37C143.76,37 146,39.24 146,42L146,152C146,154.76 143.76,157 141,157L49,157C46.24,157 44,154.76 44,152L44,82.075C44,80.629 44.615,79.325 45.598,78.412L45.598,78.402L85.669,38.331L85.681,38.32C85.963,38.062 86.271,37.836 86.603,37.648C87.06,37.389 87.557,37.202 88.073,37.099C88.399,37.033 88.731,37.001 89.064,37L146,37Z" style="fill:rgb(207,216,220);"/>
</svg>
